@startuml
hide methods
left to right direction
skinparam classAttributeIconSize 0

class Company{
-chemicalLab
}


class TestDiagnosis {
-information
}

class TestReport{
-information
}

class Test{
-idTest
-nhsCode
-tin
-creationDate
-state
}

Company "1" -- "*" TestDiagnosis : can acess >
Company "1" -- "*" Test : performs >
TestDiagnosis "1" -- "1" TestReport : information used to create >
@enduml