@startuml
hide methods
left to right direction
skinparam classAttributeIconSize 0

class Barcode{
}

class Sample{
-sampleCollectionMethod
-collectionDate
-barcode
-testID
}

class Company{
-designation
}

Barcode "1" -- "*" Sample :  is used to identify >
Company "1" -- "*" Sample : Create >

@enduml