@startuml
hide methods
left to right direction
skinparam classAttributeIconSize 0

class Company{
-chemicalLab
}


class TestDiagnosis {
-information
}

class TestReport{
-information
}

class Test{
-state
-validationDate
}

Company "1" -- "*" TestReport : can acess >
Company "1" -- "*" Test : can acess >
TestReport "1" -- "1" TestDiagnosis : own >
@enduml